<svg xmlns="http://www.w3.org/2000/svg" xmlns:xlink="http://www.w3.org/1999/xlink" style="height: 0; position: absolute">
  <symbol id="codepen" viewBox="0 0 16 16"><path d="M15.988 5.443c-.004-.02-.007-.04-.012-.058l-.01-.033c-.006-.017-.012-.034-.02-.05-.003-.012-.01-.023-.014-.034l-.023-.045-.02-.032-.03-.04-.024-.03c-.01-.013-.022-.026-.034-.038l-.027-.027-.04-.032-.03-.024-.012-.01L8.38.117c-.23-.155-.53-.155-.76 0L.305 4.99.296 5c-.012.007-.022.015-.032.023-.014.01-.027.02-.04.032l-.027.027-.034.037-.024.03-.03.04c-.006.012-.013.022-.02.033l-.023.045-.015.034c-.007.016-.012.033-.018.05l-.01.032c-.005.02-.01.038-.012.058l-.006.03C.002 5.5 0 5.53 0 5.56v4.875c0 .03.002.06.006.09l.007.03c.003.02.006.04.013.058l.01.033c.006.018.01.035.018.05l.015.033c.006.016.014.03.023.047l.02.03c.008.016.018.03.03.042.007.01.014.02.023.03.01.012.02.025.034.036.01.01.018.02.028.026l.04.033.03.023.01.01 7.31 4.876c.116.078.248.117.382.116.134 0 .266-.04.38-.116l7.314-4.875.01-.01c.012-.007.022-.015.032-.023.014-.01.027-.02.04-.032l.027-.027.034-.037.024-.03.03-.04.02-.032.023-.046.015-.033.018-.052.01-.033c.005-.02.01-.038.013-.058 0-.01.003-.02.004-.03.004-.03.006-.06.006-.09V5.564c0-.03-.002-.06-.006-.09l-.007-.03zM8 9.626L5.568 8 8 6.374 10.432 8 8 9.626zM7.312 5.18l-2.98 1.993-2.406-1.61 5.386-3.59v3.206zM3.095 8l-1.72 1.15v-2.3L3.095 8zm1.237.828l2.98 1.993v3.208l-5.386-3.59 2.406-1.61zm4.355 1.993l2.98-1.993 2.407 1.61-5.387 3.59v-3.206zM12.905 8l1.72-1.15v2.3L12.905 8zm-1.237-.827L8.688 5.18V1.97l5.386 3.59-2.406 1.61z" fill-rule="nonzero"/></symbol>
  <symbol id="dribbble" viewBox="0 0 16 16"><path d="M8 16c-4.41 0-8-3.59-8-8s3.59-8 8-8 8 3.59 8 8-3.59 8-8 8zm6.747-6.905c-.234-.074-2.115-.635-4.257-.292.894 2.456 1.258 4.456 1.328 4.872 1.533-1.037 2.624-2.68 2.93-4.58zM10.67 14.3c-.102-.6-.5-2.688-1.46-5.18l-.044.014C5.312 10.477 3.93 13.15 3.806 13.4c1.158.905 2.614 1.444 4.194 1.444.947 0 1.85-.194 2.67-.543zm-7.747-1.72c.155-.266 2.03-3.37 5.555-4.51.09-.03.18-.056.27-.08-.173-.39-.36-.778-.555-1.16C4.78 7.85 1.47 7.807 1.17 7.8l-.003.208c0 1.755.665 3.358 1.756 4.57zM1.31 6.61c.307.005 3.122.017 6.318-.832-1.132-2.012-2.353-3.705-2.533-3.952-1.912.902-3.34 2.664-3.784 4.785zM6.4 1.368c.188.253 1.43 1.943 2.548 4 2.43-.91 3.46-2.293 3.582-2.468C11.323 1.827 9.736 1.176 8 1.176c-.55 0-1.087.066-1.6.19zm6.89 2.322c-.145.194-1.29 1.662-3.816 2.694.16.325.31.656.453.99.05.117.1.235.147.352 2.274-.286 4.533.172 4.758.22-.015-1.613-.59-3.094-1.543-4.257z"/></symbol>
  <symbol id="designernews" viewBox="0 0 16 16"><path d="M7.514 7.988c0-2.555-1.57-4.287-4.56-4.287H0v8.6h3.016c2.903 0 4.498-1.75 4.498-4.31zM5.37 8c0 1.844-.946 2.642-2.467 2.642H2.13V5.358h.773C4.36 5.358 5.37 6.193 5.37 8zM16 12.3V3.7h-1.98v4.81L10.853 3.7h-2.07v8.6h1.982V7.152l3.39 5.146H16z"/></symbol>
  <symbol id="facebook" viewBox="0 0 16 16"><path d="M15.117 0H.883C.395 0 0 .395 0 .883v14.234c0 .488.395.883.883.883h7.663V9.804H6.46V7.39h2.086V5.607c0-2.066 1.262-3.19 3.106-3.19.883 0 1.642.064 1.863.094v2.16h-1.28c-1 0-1.195.476-1.195 1.176v1.54h2.39l-.31 2.416h-2.08V16h4.077c.488 0 .883-.395.883-.883V.883C16 .395 15.605 0 15.117 0" fill-rule="nonzero"/></symbol>
  <symbol id="flickr" viewBox="0 0 16 16"><path d="M0 8c0 2.05 1.662 3.71 3.71 3.71 2.05 0 3.713-1.66 3.713-3.71S5.76 4.29 3.71 4.29C1.663 4.29 0 5.95 0 8zm8.577 0c0 2.05 1.662 3.71 3.712 3.71C14.337 11.71 16 10.05 16 8s-1.662-3.71-3.71-3.71c-2.05 0-3.713 1.66-3.713 3.71z"/></symbol>
  <symbol id="github" viewBox="0 0 16 16"><path d="M8 0C3.58 0 0 3.582 0 8c0 3.535 2.292 6.533 5.47 7.59.4.075.547-.172.547-.385 0-.19-.007-.693-.01-1.36-2.226.483-2.695-1.073-2.695-1.073-.364-.924-.89-1.17-.89-1.17-.725-.496.056-.486.056-.486.803.056 1.225.824 1.225.824.714 1.223 1.873.87 2.33.665.072-.517.278-.87.507-1.07-1.777-.2-3.644-.888-3.644-3.953 0-.873.31-1.587.823-2.147-.083-.202-.358-1.015.077-2.117 0 0 .672-.215 2.2.82.638-.178 1.323-.266 2.003-.27.68.004 1.364.092 2.003.27 1.527-1.035 2.198-.82 2.198-.82.437 1.102.163 1.915.08 2.117.513.56.823 1.274.823 2.147 0 3.073-1.87 3.75-3.653 3.947.287.246.543.735.543 1.48 0 1.07-.01 1.933-.01 2.195 0 .215.144.463.55.385C13.71 14.53 16 11.534 16 8c0-4.418-3.582-8-8-8"/></symbol>
  <symbol id="hackernews" viewBox="0 0 16 16"><path d="M0 0v16h16V0H0zm8.92 8.96v3H7.25v-3l-2.75-5h1.96l1.66 3.48L9.7 3.96h1.88l-2.66 5z"/></symbol>
  <symbol id="instagram" viewBox="0 0 16 16"><path d="M8 0C5.827 0 5.555.01 4.702.048 3.85.088 3.27.222 2.76.42c-.526.204-.973.478-1.417.923-.445.444-.72.89-.923 1.417-.198.51-.333 1.09-.372 1.942C.008 5.555 0 5.827 0 8s.01 2.445.048 3.298c.04.852.174 1.433.372 1.942.204.526.478.973.923 1.417.444.445.89.72 1.417.923.51.198 1.09.333 1.942.372.853.04 1.125.048 3.298.048s2.445-.01 3.298-.048c.852-.04 1.433-.174 1.942-.372.526-.204.973-.478 1.417-.923.445-.444.72-.89.923-1.417.198-.51.333-1.09.372-1.942.04-.853.048-1.125.048-3.298s-.01-2.445-.048-3.298c-.04-.852-.174-1.433-.372-1.942-.204-.526-.478-.973-.923-1.417-.444-.445-.89-.72-1.417-.923-.51-.198-1.09-.333-1.942-.372C10.445.008 10.173 0 8 0zm0 1.44c2.136 0 2.39.01 3.233.048.78.036 1.203.166 1.485.276.374.145.64.318.92.598.28.28.453.546.598.92.11.282.24.705.276 1.485.038.844.047 1.097.047 3.233s-.01 2.39-.048 3.233c-.036.78-.166 1.203-.276 1.485-.145.374-.318.64-.598.92-.28.28-.546.453-.92.598-.282.11-.705.24-1.485.276-.844.038-1.097.047-3.233.047s-2.39-.01-3.233-.048c-.78-.036-1.203-.166-1.485-.276-.374-.145-.64-.318-.92-.598-.28-.28-.453-.546-.598-.92-.11-.282-.24-.705-.276-1.485C1.45 10.39 1.44 10.136 1.44 8s.01-2.39.048-3.233c.036-.78.166-1.203.276-1.485.145-.374.318-.64.598-.92.28-.28.546-.453.92-.598.282-.11.705-.24 1.485-.276C5.61 1.45 5.864 1.44 8 1.44zm0 2.452c-2.27 0-4.108 1.84-4.108 4.108 0 2.27 1.84 4.108 4.108 4.108 2.27 0 4.108-1.84 4.108-4.108 0-2.27-1.84-4.108-4.108-4.108zm0 6.775c-1.473 0-2.667-1.194-2.667-2.667 0-1.473 1.194-2.667 2.667-2.667 1.473 0 2.667 1.194 2.667 2.667 0 1.473-1.194 2.667-2.667 2.667zm5.23-6.937c0 .53-.43.96-.96.96s-.96-.43-.96-.96.43-.96.96-.96.96.43.96.96z"/></symbol>
  <symbol id="linkedin" viewBox="0 0 16 16"><path d="M13.632 13.635h-2.37V9.922c0-.886-.018-2.025-1.234-2.025-1.235 0-1.424.964-1.424 1.96v3.778h-2.37V6H8.51V7.04h.03c.318-.6 1.092-1.233 2.247-1.233 2.4 0 2.845 1.58 2.845 3.637v4.188zM3.558 4.955c-.762 0-1.376-.617-1.376-1.377 0-.758.614-1.375 1.376-1.375.76 0 1.376.617 1.376 1.375 0 .76-.617 1.377-1.376 1.377zm1.188 8.68H2.37V6h2.376v7.635zM14.816 0H1.18C.528 0 0 .516 0 1.153v13.694C0 15.484.528 16 1.18 16h13.635c.652 0 1.185-.516 1.185-1.153V1.153C16 .516 15.467 0 14.815 0z" fill-rule="nonzero"/></symbol>
  <symbol id="medium" viewBox="0 0 16 16"><path d="M11.824 12.628l-.276.45.798.398 2.744 1.372c.15.076.294.11.418.11.278 0 .467-.177.467-.492V5.883l-4.15 6.745zm4.096-8.67c-.004-.003 0-.01-.003-.012l-4.825-2.412c-.06-.03-.123-.038-.187-.044-.016 0-.03-.01-.047-.01-.184 0-.368.092-.467.254l-.24.39-.5.814-1.89 3.08 1.89 3.076.5.813.5.812.59.95 4.71-7.64c.02-.03.01-.06-.02-.08zm-6.27 7.045L7.17 6.97l-.295-.477-.294-.477-.25-.416v4.867l3.32 1.663.5.25.5.25-.5-.813-.5-.813zM.737 1.68L.59 1.608c-.085-.042-.166-.062-.24-.062-.206 0-.35.16-.35.427v10.162c0 .272.2.594.442.716l4.145 2.08c.107.06.208.08.3.08.257 0 .438-.2.438-.53V4.01c0-.02-.012-.04-.03-.047L.738 1.68z"/></symbol>
  <symbol id="pinterest" viewBox="0 0 16 16"><path d="M8 0C3.582 0 0 3.582 0 8c0 3.39 2.108 6.285 5.084 7.45-.07-.633-.133-1.604.028-2.295.146-.625.938-3.977.938-3.977s-.24-.48-.24-1.188c0-1.11.646-1.943 1.448-1.943.683 0 1.012.513 1.012 1.127 0 .687-.436 1.713-.662 2.664-.19.797.4 1.445 1.185 1.445 1.42 0 2.514-1.498 2.514-3.662 0-1.915-1.376-3.254-3.342-3.254-2.276 0-3.61 1.707-3.61 3.472 0 .687.263 1.424.593 1.825.066.08.075.15.057.23-.06.252-.196.796-.223.907-.035.146-.115.178-.268.107-.998-.465-1.624-1.926-1.624-3.1 0-2.524 1.834-4.84 5.287-4.84 2.774 0 4.932 1.977 4.932 4.62 0 2.757-1.74 4.977-4.153 4.977-.81 0-1.572-.422-1.833-.92l-.5 1.902c-.18.695-.667 1.566-.994 2.097.75.232 1.545.357 2.37.357 4.417 0 8-3.582 8-8s-3.583-8-8-8z" fill-rule="nonzero"/></symbol>
  <symbol id="rss" viewBox="0 0 16 16"><path d="M12.8 16C12.8 8.978 7.022 3.2 0 3.2V0c8.777 0 16 7.223 16 16h-3.2zM2.194 11.61c1.21 0 2.195.985 2.195 2.196 0 1.21-.985 2.194-2.196 2.194C.984 16 0 15.017 0 13.806c0-1.21.983-2.195 2.194-2.195zM10.606 16h-3.11c0-4.113-3.383-7.497-7.496-7.497v-3.11c5.818 0 10.606 4.79 10.606 10.607z"/></symbol>
  <symbol id="reddit" viewBox="0 0 16 16"><path d="M1.473 9.368c-.04.185-.06.374-.06.566 0 2.3 2.94 4.173 6.554 4.173 3.613 0 6.553-1.872 6.553-4.173 0-.183-.02-.364-.055-.54l-.01-.022c-.013-.036-.02-.073-.02-.11-.2-.784-.745-1.497-1.533-2.072-.03-.01-.058-.026-.084-.047-.017-.013-.03-.028-.044-.043-1.198-.824-2.91-1.34-4.807-1.34-1.88 0-3.576.506-4.772 1.315-.01.012-.02.023-.033.033-.026.022-.056.04-.087.05-.805.576-1.364 1.293-1.572 2.086 0 .038-.01.077-.025.114l-.005.01zM8 13.003c-1.198 0-2.042-.26-2.58-.8-.116-.116-.116-.305 0-.422.117-.11.307-.11.424 0 .42.42 1.125.63 2.155.63 1.03 0 1.73-.2 2.15-.62.11-.11.3-.11.42 0 .11.12.11.31 0 .43-.54.54-1.38.8-2.58.8zM5.592 7.945c-.61 0-1.12.51-1.12 1.12 0 .608.51 1.102 1.12 1.102.61 0 1.103-.494 1.103-1.102 0-.61-.494-1.12-1.103-1.12zm4.83 0c-.61 0-1.12.51-1.12 1.12 0 .608.51 1.102 1.12 1.102.61 0 1.103-.494 1.103-1.102 0-.61-.494-1.12-1.103-1.12zM13.46 6.88c.693.556 1.202 1.216 1.462 1.94.3-.225.48-.578.48-.968 0-.67-.545-1.214-1.214-1.214-.267 0-.52.087-.728.243zM1.812 6.64c-.67 0-1.214.545-1.214 1.214 0 .363.16.7.43.927.268-.72.782-1.37 1.478-1.92-.202-.14-.443-.22-.694-.22zm6.155 8.067c-3.944 0-7.152-2.14-7.152-4.77 0-.183.016-.363.046-.54-.53-.33-.86-.91-.86-1.545 0-1 .82-1.812 1.82-1.812.45 0 .87.164 1.2.455 1.24-.796 2.91-1.297 4.75-1.33l1.21-3.69.27.063s.01 0 .01.002l2.82.663c.23-.533.76-.908 1.38-.908.82 0 1.49.67 1.49 1.492 0 .823-.67 1.492-1.49 1.492s-1.49-.67-1.49-1.49L9.4 2.18l-.98 2.99c1.77.07 3.37.57 4.57 1.35.33-.31.764-.48 1.225-.48 1 0 1.814.81 1.814 1.81 0 .66-.36 1.26-.92 1.58.02.17.04.33.04.5-.01 2.63-3.21 4.77-7.16 4.77zM13.43 1.893c-.494 0-.895.4-.895.894 0 .493.4.894.894.894.49 0 .89-.4.89-.89s-.4-.89-.9-.89z"/></symbol>
  <symbol id="skype" viewBox="0 0 16 16"><path d="M8.035 12.6c-2.685 0-3.885-1.322-3.885-2.313 0-.51.374-.865.89-.865 1.15 0 .85 1.653 2.995 1.653 1.096 0 1.703-.597 1.703-1.208 0-.368-.18-.775-.904-.954l-2.387-.597C4.524 7.833 4.175 6.79 4.175 5.812c0-2.034 1.91-2.798 3.704-2.798 1.65 0 3.6.916 3.6 2.136 0 .523-.452.827-.97.827-.98 0-.798-1.36-2.773-1.36-.98 0-1.523.444-1.523 1.08 0 .636.774.84 1.446.993l1.767.392c1.936.433 2.427 1.566 2.427 2.633 0 1.652-1.266 2.886-3.82 2.886m7.4-3.264l-.014.084-.028-.16c.015.024.028.05.042.076.082-.45.125-.912.125-1.373 0-1.023-.2-2.014-.595-2.948-.38-.902-.925-1.712-1.62-2.407-.692-.696-1.5-1.242-2.4-1.623C10.015.59 9.025.39 8.005.39c-.48 0-.963.045-1.43.135H6.57l.08.04-.16-.023.08-.016C5.927.183 5.205 0 4.472 0 3.278 0 2.155.466 1.31 1.313.465 2.16 0 3.286 0 4.483c0 .763.195 1.512.563 2.175l.013-.083.028.16c-.015-.026-.027-.052-.04-.077-.076.43-.115.867-.115 1.305 0 1.022.2 2.014.593 2.948.38.903.925 1.713 1.62 2.408.693.695 1.5 1.242 2.4 1.623.932.397 1.92.597 2.94.597.445 0 .89-.04 1.325-.118l-.077-.043.162.028-.084.014c.67.378 1.426.58 2.2.58 1.194 0 2.317-.466 3.162-1.313.845-.846 1.31-1.972 1.31-3.17 0-.765-.197-1.517-.566-2.18" fill-rule="nonzero"/></symbol>
  <symbol id="tumblr" viewBox="0 0 16 16"><path d="M9.708 16c-3.396 0-4.687-2.504-4.687-4.274V6.498H3.403V4.432C5.83 3.557 6.412 1.368 6.55.12c.01-.086.077-.12.115-.12H9.01v4.076h3.2v2.422H8.997v4.98c.01.667.25 1.58 1.472 1.58h.067c.424-.012.994-.136 1.29-.278l.77 2.283c-.288.424-1.594.916-2.77.936h-.12z" fill-rule="nonzero"/></symbol>
  <symbol id="twitch" viewBox="0 0 16 16"><g fill-rule="nonzero"><path d="M1.393 0L.35 2.783v11.13h3.824V16h2.088l2.085-2.088h3.13L15.65 9.74V0H1.394zm1.39 1.39H14.26v7.653l-2.435 2.435H8l-2.085 2.085v-2.085H2.783V1.39z"/><path d="M6.61 8.348H8V4.175H6.61v4.173zm3.824 0h1.39V4.175h-1.39v4.173z"/></g></symbol>
  <symbol id="twitter" viewBox="0 0 16 16"><path d="M16 3.038c-.59.26-1.22.437-1.885.517.677-.407 1.198-1.05 1.443-1.816-.634.375-1.337.648-2.085.795-.598-.638-1.45-1.036-2.396-1.036-1.812 0-3.282 1.468-3.282 3.28 0 .258.03.51.085.75C5.152 5.39 2.733 4.084 1.114 2.1.83 2.583.67 3.147.67 3.75c0 1.14.58 2.143 1.46 2.732-.538-.017-1.045-.165-1.487-.41v.04c0 1.59 1.13 2.918 2.633 3.22-.276.074-.566.114-.865.114-.21 0-.416-.02-.617-.058.418 1.304 1.63 2.253 3.067 2.28-1.124.88-2.54 1.404-4.077 1.404-.265 0-.526-.015-.783-.045 1.453.93 3.178 1.474 5.032 1.474 6.038 0 9.34-5 9.34-9.338 0-.143-.004-.284-.01-.425.64-.463 1.198-1.04 1.638-1.7z" fill-rule="nonzero"/></symbol>
  <symbol id="vimeo" viewBox="0 0 16 16"><path d="M15.992 4.275c-.07 1.56-1.16 3.697-3.263 6.41-2.176 2.832-4.017 4.248-5.522 4.248-.933 0-1.722-.862-2.367-2.588L3.55 7.6c-.48-1.724-.993-2.587-1.542-2.587-.12 0-.538.252-1.255.755L0 4.796C.79 4.1 1.568 3.406 2.335 2.71c1.053-.912 1.844-1.39 2.37-1.44 1.246-.12 2.012.733 2.3 2.56.31 1.97.526 3.194.647 3.673.36 1.634.754 2.45 1.185 2.45.335 0 .838-.53 1.51-1.59.67-1.06 1.028-1.866 1.076-2.42.096-.915-.263-1.374-1.077-1.374-.383 0-.778.087-1.185.262.788-2.58 2.29-3.834 4.508-3.762 1.644.048 2.42 1.116 2.324 3.205z" fill-rule="nonzero"/></symbol>
  <symbol id="youtube" viewBox="0 0 16 16"><path d="M0 7.345c0-1.294.16-2.59.16-2.59s.156-1.1.636-1.587c.608-.637 1.408-.617 1.764-.684C3.84 2.36 8 2.324 8 2.324s3.362.004 5.6.166c.314.038.996.04 1.604.678.48.486.636 1.588.636 1.588S16 6.05 16 7.346v1.258c0 1.296-.16 2.59-.16 2.59s-.156 1.102-.636 1.588c-.608.638-1.29.64-1.604.678-2.238.162-5.6.166-5.6.166s-4.16-.037-5.44-.16c-.356-.067-1.156-.047-1.764-.684-.48-.487-.636-1.587-.636-1.587S0 9.9 0 8.605v-1.26zm6.348 2.73V5.58l4.323 2.255-4.32 2.24h-.002z"/></symbol>
  <symbol id="link" viewBox="0 0 16 16"><path d="M5.86 12.7l-.81.8c-.7.7-1.84.7-2.54 0a1.75 1.75 0 0 1 0-2.5l2.98-2.96c.61-.61 1.77-1.52 2.62-.68a1 1 0 1 0 1.4-1.4c-1.44-1.43-3.57-1.17-5.42.67L1.1 9.6a3.72 3.72 0 0 0 0 5.32 3.78 3.78 0 0 0 5.34 0l.8-.8a1 1 0 1 0-1.39-1.42zm9.03-11.5c-1.55-1.53-3.7-1.6-5.14-.19l-1 1a1 1 0 1 0 1.39 1.41l1-1c.75-.74 1.72-.43 2.35.2a1.75 1.75 0 0 1 0 2.5l-3.17 3.15c-1.46 1.45-2.14.77-2.43.48a1 1 0 0 0-1.4 1.4c.67.67 1.43 1 2.23 1 .98 0 2.01-.5 3-1.47l3.17-3.15a3.72 3.72 0 0 0 0-5.32z"/></symbol>
  <symbol id="email" viewBox="0 0 16 11"><path fill-rule="evenodd" d="M1.33 0h13.34L8 5 1.33 0zM16 0v11H0V0l8 6 8-6z"/></symbol>
  <symbol id="nav" viewBox="0 0 16 11"><path d="M0 12h16v-2H0v2zm0-5h16V5H0v2zm0-7v2h16V0H0z"/></symbol>
  <symbol id="google-scholar" viewBox="0 -303 2048 2048"><path transform="scale(1, -1) translate(0, -1500)" d="M1624.144 1414.115v124.49l90.354 70.538h-977.782l-590.432-513.25h391.57c-0.71-9.714-1.002-18.498-1.002-28.46 0-95.29 33.002-174.11 99.072-237.078 66.070-63.072 147.434-94.39 243.778-94.39 22.506 0 44.574 1.682 66.004 4.682-13.29-29.718-19.998-57.248-19.998-82.936 0-45.144 20.568-93.396 61.564-144.648-179.354-12.208-311.136-44.492-395.14-96.746-48.142-29.71-86.858-67.218-116.070-112.142-29.214-45.254-43.784-93.784-43.784-146.11 0-44.106 9.428-83.822 28.43-119.142s43.784-64.322 74.57-86.784c30.712-22.71 66.144-41.604 106.144-57 39.928-15.286 79.572-26.142 119.136-32.286 39.438-6.136 78.65-9.136 117.512-9.136 61.572 0 123.216 7.928 185.358 23.712 61.996 15.93 120.138 39.504 174.496 70.824 54.214 31.108 98.356 73.538 132.214 126.712 33.784 53.394 50.718 113.394 50.718 179.822 0 50.358-10.284 96.176-30.858 137.786-20.428 41.472-45.43 75.616-75.212 102.144-29.718 26.572-59.428 50.996-89.212 72.996-29.718 22.148-54.858 44.574-75.286 67.716-20.502 23.070-30.786 45.962-30.786 68.498 0 22.498 7.928 44.214 23.844 65.214 15.792 21.072 35.080 41.362 57.644 60.826 22.572 19.426 45.144 40.996 67.642 64.608 22.498 23.53 41.786 54.068 57.644 91.466 15.93 37.39 23.786 79.748 23.786 126.888 0 61.498-11.644 111.82-34.502 152.29-2.714 4.674-5.566 8.244-8.572 13.816l260.148 213.358v-78.256c-33.8-4.25-30.282-24.438-30.282-48.618v-588.192c0-27.238 22.286-49.526 49.526-49.526h18.234c27.238 0 49.526 22.286 49.526 49.526v588.192c0 24.122 3.554 44.288-29.996 48.596zM1133.356 397.071c5.216-3.43 16.932-12.712 35.284-27.604 18.512-14.826 31.072-26.038 37.786-33.894 6.576-7.606 16.362-19.040 29.148-34.502 12.858-15.426 21.57-28.818 26.142-39.928 4.572-11.322 9.216-24.964 13.926-40.894 4.506-15.748 6.788-31.89 6.788-48.282 0-77.934-30.004-135.68-89.856-173.070-60-37.398-131.504-56.108-214.572-56.108-41.998 0-83.214 4.996-123.714 14.606-40.426 9.676-79.14 24.394-116.070 43.894-36.93 19.464-66.64 46.644-89.146 81.356-22.572 34.926-33.858 75.038-33.858 119.998 0 47.178 12.786 88.182 38.502 122.998 25.57 34.86 59.144 61.22 100.718 79.156 41.428 18.038 83.426 30.822 125.996 38.392 42.57 7.782 85.928 11.68 130.004 11.68 20.428 0 36.278-1.148 47.564-3.182 2.078-1.002 13.86-9.464 35.358-25.432 21.504-15.828 34.86-25.578 40.002-29.184zM1118.004 856.855c-33.858-40.5-81.072-60.746-141.502-60.746-54.214 0-101.932 21.782-142.928 65.426-41.142 43.534-70.502 92.928-88.43 148.254-18 55.354-26.998 109.642-26.998 162.962 0 62.602 16.436 115.894 49.284 159.89 32.856 44.112 79.996 66.216 141.43 66.216 54.286 0 102.282-23.032 143.712-69.288 41.574-46.102 71.358-97.888 89.22-155.282 17.928-57.322 26.85-112.136 26.85-164.498 0-61.47-16.926-112.502-50.636-152.934z"/></symbol>
  <symbol id="observable" viewBox="0 0 24 24"><path d="M12.1450213,20.7196596 C11.0175263,20.7196596 10.0411956,20.4623004 9.216,19.9475745 C8.39080438,19.4328485 7.75761923,18.7343023 7.31642553,17.8519149 C6.87523184,16.9695275 6.55251166,16.0340475 6.34825532,15.0454468 C6.14399898,14.0568461 6.04187234,12.990644 6.04187234,11.8468085 C6.04187234,10.9971021 6.09497819,10.1841741 6.20119149,9.408 C6.30740479,8.63182591 6.50348793,7.84340826 6.78944681,7.0427234 C7.07540569,6.24203855 7.44306158,5.54757741 7.89242553,4.95931915 C8.34178948,4.37106089 8.93003892,3.89310822 9.65719149,3.52544681 C10.3843441,3.1577854 11.2136124,2.97395745 12.1450213,2.97395745 C13.2725163,2.97395745 14.2488469,3.23131658 15.0740426,3.74604255 C15.8992382,4.26076853 16.5324233,4.95931474 16.973617,5.84170213 C17.4148107,6.72408952 17.7375309,7.65956953 17.9417872,8.64817021 C18.1460436,9.6367709 18.2481702,10.702973 18.2481702,11.8468085 C18.2481702,12.6965149 18.1950644,13.5094429 18.0888511,14.285617 C17.9826378,15.0617911 17.7824696,15.8502088 17.4883404,16.6508936 C17.1942113,17.4515785 16.8265554,18.1460396 16.3853617,18.7342979 C15.944168,19.3225561 15.3600036,19.8005088 14.6328511,20.1681702 C13.9056985,20.5358316 13.0764302,20.7196596 12.1450213,20.7196596 Z M14.245196,13.9469832 C14.8285807,13.3635984 15.1202688,12.6635472 15.1202688,11.8468085 C15.1202688,11.0300698 14.8358729,10.3300186 14.2670728,9.74663382 C13.6982726,9.16324904 12.9909292,8.87156103 12.1450213,8.87156103 C11.2991134,8.87156103 10.5917699,9.16324904 10.0229698,9.74663382 C9.45416961,10.3300186 9.1697738,11.0300698 9.1697738,11.8468085 C9.1697738,12.6635472 9.45416961,13.3635984 10.0229698,13.9469832 C10.5917699,14.530368 11.2991134,14.822056 12.1450213,14.822056 C12.9909292,14.822056 13.6909804,14.530368 14.245196,13.9469832 Z M12,24 C18.627417,24 24,18.627417 24,12 C24,5.372583 18.627417,0 12,0 C5.372583,0 0,5.372583 0,12 C0,18.627417 5.372583,24 12,24 Z"/></symbol>
  <symbol id="pdf" viewBox="0 0 14 14"> <path transform="matrix(.793 0 0 .793 -40.4 -804.8)" d="m68.52 1026.73c-.309-.304-.995-.466-2.038-.479-.706-.011-1.556.054-2.45.179-.4-.231-.813-.482-1.137-.785-.871-.813-1.598-1.943-2.051-3.184.03-.116.055-.218.078-.322 0 0 .491-2.787.361-3.729-.018-.129-.029-.167-.064-.267l-.043-.109c-.133-.308-.395-.634-.805-.616l-.241-.011h-.007c-.458 0-.83.234-.928.584-.298 1.097.009 2.738.566 4.863l-.142.346c-.398.971-.898 1.949-1.338 2.812l-.057.112c-.463.907-.884 1.677-1.265 2.329l-.394.208c-.029.015-.703.372-.861.467-1.342.801-2.231 1.711-2.379 2.433-.047.23-.012.525.227.662l.381.191c.165.083.339.125.518.125.956 0 2.066-1.191 3.594-3.859 1.765-.575 3.774-1.052 5.536-1.316 1.342.756 2.993 1.281 4.03 1.281.185 0 .344-.018.474-.052.2-.053.368-.167.471-.321.202-.304.243-.723.188-1.152-.016-.127-.118-.285-.228-.392zm-14.277 5.086c.174-.477.864-1.419 1.884-2.255.064-.052.222-.2.367-.338-1.067 1.701-1.781 2.38-2.251 2.592m6.04-13.914c.307 0 .482.775.497 1.501.014.726-.155 1.236-.366 1.613-.174-.558-.259-1.438-.259-2.01 0 0-.013-1.1.128-1.1m-1.802 9.916c.214-.383.437-.787.664-1.216.555-1.049.905-1.87 1.166-2.544.519.944 1.165 1.747 1.925 2.39.095.08.195.161.301.241-1.545.306-2.88.677-4.056 1.129m9.74-.086c-.094.058-.364.093-.537.093-.56 0-1.252-.256-2.222-.672.373-.028.715-.042 1.021-.042.561 0 .727 0 1.276.138.549.14.556.424.462.483"/></symbol>
  </svg>
</svg>
